<svg xmlns="http://www.w3.org/2000/svg" viewBox="0 0 47.33 104.35"><defs><style>.cls-1{fill:#7f3f97;}.cls-2{fill:#fff;}.cls-3{fill:#faaf40;}.cls-4{fill:#a36faf;}</style></defs><title>miles</title><g id="Layer_2" data-name="Layer 2"><g id="Layer_2-2" data-name="Layer 2"><g id="head-purple"><path class="cls-1" d="M23.64,9.92h0Z"/><path class="cls-1" d="M23.69,37.28h0Z"/><path class="cls-1" d="M37.6,3.59a2.36,2.36,0,0,0-2.89,1.68A19.24,19.24,0,0,1,33,9.55a16.35,16.35,0,0,1-1.55,2.34,16.49,16.49,0,0,0-15.63,0A17.24,17.24,0,0,1,14.3,9.55a19.21,19.21,0,0,1-1.67-4.28,2.72,2.72,0,0,0-.13-.37,2.37,2.37,0,1,0-4.32,2v0a23.6,23.6,0,0,0,2.89,4.82,22.45,22.45,0,0,0,2,2.16A13,13,0,0,0,8.53,23.6a12.79,12.79,0,0,0,3.25,8.46h0a12.78,12.78,0,0,0,1.27,1.28,14.91,14.91,0,0,0,3.24,2.2,16.52,16.52,0,0,0,14.76,0,15.16,15.16,0,0,0,3.24-2.2,12.67,12.67,0,0,0,1.26-1.28h0A12.83,12.83,0,0,0,38.8,23.6a13,13,0,0,0-4.51-9.73,20.1,20.1,0,0,0,2-2.16,23.6,23.6,0,0,0,2.89-4.82l0,0a3.62,3.62,0,0,0,.13-.35A2.38,2.38,0,0,0,37.6,3.59Z"/></g><g id="legs"><path class="cls-1" d="M23.61,54.67a9.45,9.45,0,0,0-6.44,2.91A20.1,20.1,0,0,0,14.3,61c-.44.62-.86,1.29-1.28,2C7.41,72.58,8.45,89.3,9.75,100.35h5.34C15.81,90.47,17.2,80,23.69,80h-.05c6.5,0,7.88,10.43,8.6,20.31h5.35c1.3-11,2.33-27.77-3.28-37.38-.41-.72-.84-1.39-1.28-2a19.65,19.65,0,0,0-2.87-3.38,9.43,9.43,0,0,0-6.43-2.91"/></g><g id="face"><path class="cls-2" d="M23.64,37.5c2.42,0,3.66,3.76,5.63,2.78.36-3,.76-6,3.9-8.5a8.68,8.68,0,0,0,3.25-6.3c0-6.63-6.79-13.45-12.78-10.81h.05c-6-2.64-12.77,4.18-12.77,10.81a8.67,8.67,0,0,0,3.24,6.3c3.15,2.54,3.54,5.5,3.9,8.5,2,1,3.21-2.78,5.63-2.78"/></g><g id="cape"><path class="cls-3" d="M23.64,75H47.33C43.65,57.18,38.89,41.73,32,35.06A22.34,22.34,0,0,1,23.64,37h.05a22.3,22.3,0,0,1-8.31-1.92C8.45,41.73,3.68,57.18,0,75H23.69"/></g><g id="antenna"><path class="cls-4" d="M25.68,9.38a.39.39,0,0,1-.18,0l-4.22-2a.44.44,0,0,1,.37-.79l4.22,2a.44.44,0,0,1,.21.58A.45.45,0,0,1,25.68,9.38Z"/><path class="cls-4" d="M25.72,5.85a.41.41,0,0,1-.33-.15L23.24,3.19a.44.44,0,0,1,.05-.61.42.42,0,0,1,.61,0l2.15,2.51a.44.44,0,0,1-.05.61A.42.42,0,0,1,25.72,5.85Z"/><path class="cls-1" d="M21.46,11.05a.43.43,0,0,1-.4-.29.42.42,0,0,1,.25-.55l4.22-1.57a.43.43,0,0,1,.56.25.44.44,0,0,1-.25.56L21.61,11Z"/><path class="cls-1" d="M21.46,7.44a.43.43,0,0,1-.15-.84L25.53,5a.43.43,0,0,1,.31.81L21.61,7.41A.4.4,0,0,1,21.46,7.44Z"/><path class="cls-1" d="M23.57,3.34a1.67,1.67,0,1,1,1.67-1.67A1.67,1.67,0,0,1,23.57,3.34Zm0-2.47a.8.8,0,1,0,.81.8A.8.8,0,0,0,23.57.87Z"/></g><g id="cape_middle" data-name="cape middle"><rect class="cls-1" x="23.26" y="36.98" width="0.87" height="38.03"/></g><g id="nose"><path class="cls-1" d="M22.33,28.16l-.76-.41c.17-.33,1.11-1.94,2.12-1.94s1.91,1.62,2.08,2l-.77.39c-.36-.7-1-1.48-1.31-1.48S22.71,27.46,22.33,28.16Z"/></g><g id="mouth"><path class="cls-1" d="M23.69,32.16c-1.71,0-5-.83-5.42-2.49l.84-.22c.26,1,3,1.84,4.58,1.84s4.27-.82,4.53-1.84l.84.22C28.64,31.33,25.39,32.16,23.69,32.16Z"/></g><g id="foot-laft"><path class="cls-1" d="M13.79,101.65v1.4H7.58a5,5,0,0,1-.66,0,12.44,12.44,0,0,1,3-1.37h3.84m1.3-1.3H9.75s-4.17,1.3-4.17,2.43.27,1.57,2,1.57h7.51v-4Z"/></g><g id="foot-right"><path class="cls-1" d="M37.39,101.65a12,12,0,0,1,3,1.37,4.86,4.86,0,0,1-.66,0H33.54v-1.4h3.85m.2-1.3H32.24v4h7.51c1.74,0,2-.43,2-1.57s-4.17-2.43-4.17-2.43Z"/></g><g id="collar-left"><polyline class="cls-1" points="15.38 35.06 20.2 40.28 23.69 36.98"/></g><g id="collar-right"><polyline class="cls-1" points="31.96 35.06 27.14 40.28 23.64 36.98"/></g><circle class="cls-1" cx="29.63" cy="23.39" r="1.83"/><path class="cls-1" d="M30.39,25.72H25.57l.95-2.95a2.33,2.33,0,0,1,2.24-1.63h4.85l-.35,2.13A2.89,2.89,0,0,1,30.39,25.72Zm-3.63-.87h3.63a2,2,0,0,0,2-1.72L32.59,22H28.76a1.49,1.49,0,0,0-1.42,1Z"/><g id="button-top"><path class="cls-2" d="M22.86,44.39c.91,0,3.31,1.65,3.31,1.65s-2.4,1.65-3.31,1.65h0a1.65,1.65,0,0,1,0-3.3"/><circle class="cls-1" cx="22.6" cy="46.04" r="0.73"/></g><g id="button-middle"><path class="cls-2" d="M22.86,51.37c.91,0,3.31,1.65,3.31,1.65s-2.4,1.65-3.31,1.65h0a1.65,1.65,0,0,1,0-3.3"/><circle class="cls-1" cx="22.6" cy="53.02" r="0.73"/></g><g id="button-bottom"><path class="cls-2" d="M22.86,58.35c.91,0,3.31,1.65,3.31,1.65s-2.4,1.65-3.31,1.65h0a1.65,1.65,0,0,1,0-3.3"/><circle class="cls-1" cx="22.6" cy="60" r="0.73"/></g><g id="eyebrow-left"><rect class="cls-1" x="18.47" y="18" width="0.87" height="2.77" transform="translate(-4.08 33.69) rotate(-77.62)"/></g><g id="eyebrow-right"><rect class="cls-1" x="26.75" y="18.95" width="2.77" height="0.87" transform="translate(-3.5 6.48) rotate(-12.38)"/></g><circle class="cls-1" cx="17.88" cy="23.39" r="1.83"/><path class="cls-1" d="M21.76,25.72H16.94a2.9,2.9,0,0,1-2.87-2.45l-.34-2.13h4.85a2.35,2.35,0,0,1,2.24,1.63Zm-7-3.72.18,1.13a2,2,0,0,0,2,1.72h3.63L20,23a1.48,1.48,0,0,0-1.41-1Z"/></g></g></svg>