<svg xmlns="http://www.w3.org/2000/svg" viewBox="0 0 71.7 71.96"><defs><style>.cls-1{fill:#f9ae42;}.cls-2{fill:#fff;}.cls-3{fill:#f05a2a;}</style></defs><title>pip-9</title><g id="Layer_2" data-name="Layer 2"><g id="Layer_1-2" data-name="Layer 1"><path class="cls-1" d="M8.71,50.78a.23.23,0,0,0-.07-.07l-.06-.07h0A29.74,29.74,0,0,1,50.64,8.58h0l.07.06a.23.23,0,0,0,.07.07h0c11.56,11.87,20.93,63,20.93,63s-51.12-9.37-63-20.93Z"/><path class="cls-1" d="M37.11,61.65,35.8,56.26,17.57,60.68l-.69-2.82a2.78,2.78,0,1,0-5.4,1.31l2,8.22Z"/><circle class="cls-2" cx="26.28" cy="26.3" r="15.57"/><path class="cls-2" d="M52.5,66.08,27.94,70.49l-1.5-8.33a2.78,2.78,0,1,1,5.47-1L32.42,64l19.1-3.43-.23-1.25L33.45,62.57,33.16,61a4,4,0,1,0-8,1.43L26.91,72l25.81-4.63Z"/><path class="cls-1" d="M51.52,60.61,32.42,64l-.51-2.86a2.78,2.78,0,1,0-5.47,1l1.5,8.33L52.5,66.08l.11.63h0L51.41,60h0Z"/><path class="cls-3" d="M33.83,23.89l-4.78-1.53a2.74,2.74,0,0,0-.71,1.84c0,.1,0,.2,0,.31L33.15,26a2.69,2.69,0,0,0,.71-1.83A3,3,0,0,0,33.83,23.89Z"/><circle class="cls-3" cx="19.73" cy="20.79" r="2.76"/></g></g></svg>