<svg xmlns="http://www.w3.org/2000/svg" viewBox="0 0 86.88 83.75"><defs><style>.cls-1{fill:#f9ae42;}.cls-2{fill:#fff;}.cls-3{fill:#f05a2a;}</style></defs><title>pip-5</title><g id="Layer_2" data-name="Layer 2"><g id="Layer_1-2" data-name="Layer 1"><path class="cls-1" d="M62.66,58.8h1.26v7.83c1.92.48,3.78.93,5.56,1.35V58.8h1.27v9.48C80,70.44,86.88,71.7,86.88,71.7S77.52,20.58,66,8.71h0a.46.46,0,0,1-.07-.07l-.06-.06h0A29.74,29.74,0,0,0,23.77,50.64h0a.46.46,0,0,1,.07.07l.07.07h0c6.33,6.16,23.81,11.7,38.76,15.53Z"/><circle class="cls-2" cx="41.46" cy="26.3" r="15.57"/><circle class="cls-3" cx="35.92" cy="20.79" r="2.76"/><circle class="cls-3" cx="47.29" cy="24.2" r="2.76"/><path class="cls-1" d="M49,59.44H43.45V78.2h-2.9a2.78,2.78,0,1,0,0,5.55H49Z"/><path class="cls-1" d="M63.92,58.8V78.2H61a2.78,2.78,0,1,0,0,5.55h8.46v-25H63.92Z"/><path class="cls-1" d="M23.31,47.55H23C11.29,46.2,4.41,39.08,3.13,26.94a2.5,2.5,0,1,1,5-.52c1,9.8,6.1,15.08,15.49,16.15a2.5,2.5,0,0,1-.28,5Z"/><path class="cls-1" d="M6.25,26.12a.78.78,0,0,1-.22,0,1,1,0,0,1-.76-1.19l1.41-6.35a1,1,0,1,1,2,.43L7.22,25.33A1,1,0,0,1,6.25,26.12Z"/><path class="cls-1" d="M6.68,27.42a1,1,0,0,1-.75-.34A1,1,0,0,1,6,25.67l2.84-2.53a1,1,0,0,1,1.33,1.5L7.35,27.16A1,1,0,0,1,6.68,27.42Z"/><path class="cls-1" d="M4.78,25.67a1,1,0,0,1-1-.78L2.46,18.74a1,1,0,0,1,2-.43l1.35,6.15A1,1,0,0,1,5,25.65.86.86,0,0,1,4.78,25.67Z"/><path class="cls-1" d="M4.55,27.05a1,1,0,0,1-.69-.27L.31,23.43A1,1,0,1,1,1.69,22l3.55,3.35a1,1,0,0,1-.69,1.72Z"/></g></g></svg>