<svg xmlns="http://www.w3.org/2000/svg" viewBox="0 0 71.7 83.75"><defs><style>.cls-1{fill:#f9ae42;}.cls-2{fill:#fff;}.cls-3{fill:#f05a2a;}.cls-4{fill:none;stroke:#7e3f97;stroke-miterlimit:10;stroke-width:2px;}.cls-5{fill:#d9afe9;}</style></defs><title>pip-3</title><g id="Layer_2" data-name="Layer 2"><g id="Layer_1-2" data-name="Layer 1"><path class="cls-1" d="M47.47,58.8h1.27v7.83c1.91.48,3.77.93,5.55,1.35V58.8h1.27v9.48C64.84,70.44,71.7,71.7,71.7,71.7s-9.37-51.12-20.93-63h0a.23.23,0,0,1-.07-.07l-.07-.06h0A29.74,29.74,0,0,0,8.58,50.64h0l.06.07a.23.23,0,0,1,.07.07h0C15,56.93,32.52,62.47,47.47,66.3Z"/><circle class="cls-2" cx="26.28" cy="26.3" r="15.57"/><circle class="cls-3" cx="20.73" cy="20.79" r="2.76"/><circle class="cls-3" cx="32.1" cy="24.2" r="2.76"/><path class="cls-1" d="M33.82,59.44H28.27V78.2H25.36a2.78,2.78,0,1,0,0,5.55h8.46Z"/><path class="cls-1" d="M48.74,58.8V78.2H45.83a2.78,2.78,0,1,0,0,5.55h8.46v-25H48.74Z"/><circle class="cls-4" cx="17.44" cy="20.02" r="7.35"/><path class="cls-4" d="M24.93,19.84c.2-.75,1.23-1.13,2.3-.84s1.76,1.14,1.56,1.9"/><circle class="cls-4" cx="35.12" cy="24.85" r="7.35"/><rect class="cls-5" x="24.78" y="56.94" width="11.92" height="18.74"/><rect class="cls-5" x="45.38" y="56.94" width="11.92" height="18.74"/><path class="cls-5" d="M56.92,18.77a30.22,30.22,0,0,1,.38,4.78,29.62,29.62,0,0,1-4.42,15.56,24.14,24.14,0,0,1-9.21,9.63,34.37,34.37,0,0,1-19.46,5.95,34.77,34.77,0,0,1-14.8-3.28C22.44,62.67,71.7,71.7,71.7,71.7S65.47,37.76,56.92,18.77Z"/></g></g></svg>