<svg xmlns="http://www.w3.org/2000/svg" viewBox="0 0 73.98 86.43"><defs><style>.cls-1{fill:#f9ae42;}.cls-2{fill:#fff;}.cls-3{fill:#f05a2a;}</style></defs><title>pip-image</title><g id="Layer_2" data-name="Layer 2"><g id="Layer_2-2" data-name="Layer 2"><path class="cls-1" d="M49,60.68h1.31v8.07c2,.5,3.89,1,5.73,1.4V60.68h1.31v9.78C66.9,72.69,74,74,74,74S64.32,21.24,52.39,9h0l-.08-.07-.06-.07h0a30.69,30.69,0,0,0-43.4,43.4h0l.07.06L9,52.4H9c6.53,6.36,24.57,12.08,40,16Z"/><circle class="cls-2" cx="27.12" cy="27.14" r="16.07"/><circle class="cls-3" cx="21.39" cy="21.45" r="2.85"/><circle class="cls-3" cx="33.12" cy="24.97" r="2.85"/><path class="cls-1" d="M34.9,61.33H29.17V80.69h-3a2.87,2.87,0,1,0,0,5.74H34.9Z"/><path class="cls-1" d="M50.29,60.68v20h-3a2.87,2.87,0,0,0,0,5.74H56V60.68H50.29Z"/></g></g></svg>