<svg xmlns="http://www.w3.org/2000/svg" viewBox="0 0 71.7 87.06"><defs><style>.cls-1{fill:#fcb19d;}.cls-2{fill:#fff;}.cls-3{fill:#f05a2a;}.cls-4{fill:#ef9381;}</style></defs><title>pip-7</title><g id="Layer_2" data-name="Layer 2"><g id="Layer_1-2" data-name="Layer 1"><path class="cls-1" d="M47.47,62.1h1.27v7.83c1.91.48,3.77.93,5.55,1.35V62.1h1.27v9.48C64.84,73.74,71.7,75,71.7,75S62.33,23.88,50.77,12h0L50.71,12l-.07-.07h0A29.74,29.74,0,0,0,8.58,53.94h0l.06.06.07.07h0C15,60.24,32.52,65.78,47.47,69.61Z"/><circle class="cls-2" cx="26.28" cy="29.61" r="15.57"/><circle class="cls-3" cx="20.73" cy="24.09" r="2.76"/><circle class="cls-3" cx="32.1" cy="27.5" r="2.76"/><path class="cls-1" d="M33.82,62.74H28.27V81.5H25.36a2.78,2.78,0,0,0,0,5.56h8.46Z"/><path class="cls-1" d="M48.74,62.1V81.5H45.83a2.78,2.78,0,0,0,0,5.56h8.46v-25H48.74Z"/><path class="cls-1" d="M33.46,36.39c-1,3.5-6.14,3.91-11.77,2.22S12,33.78,13.07,30.28s6.78-6,12.41-4.33S34.51,32.9,33.46,36.39Z"/><circle class="cls-2" cx="19.26" cy="30.92" r="1.59"/><circle class="cls-2" cx="27.59" cy="33.42" r="1.59"/><path class="cls-4" d="M12.33,5.56l6.39,5.29a1.51,1.51,0,0,0,2.45-.91l1.39-8.18a1.5,1.5,0,0,0-2-1.66L12.77,3A1.51,1.51,0,0,0,12.33,5.56Z"/><path class="cls-4" d="M44.2,8.06l-.81,8.26a1.51,1.51,0,0,0,2.13,1.52l7.55-3.43a1.52,1.52,0,0,0,.26-2.61L46.58,7A1.51,1.51,0,0,0,44.2,8.06Z"/></g></g></svg>