<svg xmlns="http://www.w3.org/2000/svg" viewBox="0 0 59.49 92.44"><defs><style>.cls-1{fill:#f9ae42;}.cls-2{fill:#fff;}.cls-3{fill:#f05a2a;}</style></defs><title>pip-11</title><g id="Layer_2" data-name="Layer 2"><g id="Layer_1-2" data-name="Layer 1"><path class="cls-1" d="M59.49,29.65v-.09h0A29.75,29.75,0,0,0,0,29.56H0v.19H0C.22,46.31,29.75,89.08,29.75,89.08s2.94-4.27,7-10.62v-11H38v9c8.75-14,21.35-35.91,21.49-46.7h0Z"/><circle class="cls-2" cx="29.73" cy="24.86" r="15.57" transform="translate(0.42 50.22) rotate(-80.78)"/><circle class="cls-3" cx="24.26" cy="19.57" r="2.76"/><circle class="cls-3" cx="36.12" cy="19.57" r="2.76"/><path class="cls-1" d="M25,68.13H19.44V86.89H16.53a2.78,2.78,0,0,0,0,5.55H25Z"/><path class="cls-1" d="M38,67.49v19.4H35.08a2.78,2.78,0,1,0,0,5.55h8.47v-25H38Z"/></g></g></svg>