<svg xmlns="http://www.w3.org/2000/svg" viewBox="0 0 265.83 115"><defs><style>.cls-1{fill:#f9ae42;}.cls-2{fill:#fff;}.cls-3{fill:#f05a2a;}</style></defs><title>pip-;ogo-horizontal</title><g id="Layer_2" data-name="Layer 2"><g id="Layer_2-2" data-name="Layer 2"><path class="cls-1" d="M49,72.76h1.31v8.07c2,.5,3.89,1,5.73,1.4V72.76h1.31v9.78C66.9,84.77,74,86.06,74,86.06s-9.66-52.74-21.59-65h0L52.32,21l-.06-.07h0a30.69,30.69,0,0,0-43.4,43.4h0l.07.06a.23.23,0,0,0,.07.07H9c6.53,6.36,24.57,12.07,40,16Z"/><circle class="cls-2" cx="27.12" cy="39.22" r="16.07"/><path class="cls-3" d="M115.81,115H98.36V33.2h17.45v6.43a20.19,20.19,0,0,1,16.84-8.24A26.19,26.19,0,0,1,151.8,39c4.85,4.85,8.12,12.24,8.12,21.09,0,9.33-3.27,16.35-8.6,21.69s-11.15,7.27-18.3,7.27c-10.79,0-15.39-5.46-17.21-8Zm2.91-64.59a14.47,14.47,0,0,0-4.12,9.94,14,14,0,0,0,3.88,9.57A14.19,14.19,0,0,0,128.41,74a13.8,13.8,0,0,0,9.33-3.76A14.78,14.78,0,0,0,142,60a13.6,13.6,0,0,0-4.12-9.81,13.74,13.74,0,0,0-9.46-3.76A13.43,13.43,0,0,0,118.72,50.41Z"/><path class="cls-3" d="M180.76,0a10.08,10.08,0,0,1,10.18,10.18,10.18,10.18,0,0,1-20.36,0A10.09,10.09,0,0,1,180.76,0Zm8.73,33.2V87.25H172v-54Z"/><path class="cls-3" d="M221.72,115H204.27V33.2h17.45v6.43a20.18,20.18,0,0,1,16.84-8.24A26.19,26.19,0,0,1,257.71,39c4.85,4.85,8.12,12.24,8.12,21.09,0,9.33-3.27,16.35-8.61,21.69s-11.14,7.27-18.29,7.27c-10.79,0-15.39-5.46-17.21-8Zm2.91-64.59a14.47,14.47,0,0,0-4.12,9.94,14,14,0,0,0,3.87,9.57A14.22,14.22,0,0,0,234.32,74a13.82,13.82,0,0,0,9.33-3.76A14.77,14.77,0,0,0,247.89,60a13.56,13.56,0,0,0-4.12-9.81,13.7,13.7,0,0,0-9.45-3.76A13.39,13.39,0,0,0,224.63,50.41Z"/><circle class="cls-3" cx="21.39" cy="33.53" r="2.85"/><circle class="cls-3" cx="33.12" cy="37.05" r="2.85"/><path class="cls-1" d="M34.9,73.41H29.17V92.77h-3a2.87,2.87,0,1,0,0,5.73H34.9Z"/><path class="cls-1" d="M50.29,72.76v20h-3a2.87,2.87,0,0,0,0,5.73H56V72.76H50.29Z"/></g></g></svg>