<svg xmlns="http://www.w3.org/2000/svg" viewBox="0 0 73.55 97.38"><defs><style>.cls-1{fill:#f9ae42;}.cls-2{fill:#fff;}.cls-3{fill:#f05a2a;}.cls-4{fill:#eaeaea;}.cls-5{fill:#00a14b;}</style></defs><title>pip-6</title><g id="Layer_2" data-name="Layer 2"><g id="Layer_1-2" data-name="Layer 1"><path class="cls-1" d="M47.47,72.43h1.27v7.82c1.91.49,3.77.94,5.55,1.36V72.43h1.27v9.48c9.28,2.16,16.14,3.42,16.14,3.42s-9.37-51.12-20.93-63h0a.46.46,0,0,1-.07-.07l-.07-.06h0A29.74,29.74,0,0,0,8.58,64.27h0l.06.06.07.07h0C15,70.56,32.52,76.1,47.47,79.93Z"/><circle class="cls-2" cx="26.28" cy="39.93" r="15.57"/><circle class="cls-3" cx="20.73" cy="34.41" r="2.76"/><circle class="cls-3" cx="32.1" cy="37.83" r="2.76"/><path class="cls-1" d="M33.82,73.06H28.27V91.83H25.36a2.78,2.78,0,1,0,0,5.55h8.46Z"/><path class="cls-1" d="M48.74,72.43v19.4H45.83a2.78,2.78,0,1,0,0,5.55h8.46V72.43H48.74Z"/><path class="cls-3" d="M37.62,9.92S52.47-.48,56.44,0s4.45,5.45,10.89,7.43,3.11,19.81,3.11,19.81l-6.57-9.91-5,9.91Z"/><rect class="cls-4" x="30.59" y="16.86" width="31.68" height="7.17" rx="3.59" ry="3.59" transform="translate(22.45 -24.27) rotate(38.03)"/><circle class="cls-4" cx="70.44" cy="27.26" r="3.11"/><path class="cls-3" d="M12.74,67.42c6.26-.16,16.9,1,27.07-5S57.23,43.77,59.16,37.83c4,4.92,4.37,8.78,4.42,13.33C61.32,56.62,54.3,66.1,48.67,68.88s-20.36,5.5-23.74,4.18C21.31,73.74,12.74,67.42,12.74,67.42Z"/><path class="cls-3" d="M59.16,37.83c3.43-.67,4.35,13.27,4.35,13.27s.44,12.39-3,15.25C56.6,65.39,58.68,47,59.16,37.83Z"/><circle class="cls-5" cx="60.47" cy="68.3" r="3.11"/></g></g></svg>