<svg xmlns="http://www.w3.org/2000/svg" viewBox="0 0 71.7 83.99"><defs><style>.cls-1{fill:#f9ae42;}.cls-2{fill:#fff;}.cls-3{fill:#f05a2a;}.cls-4{fill:#7e3f97;}.cls-5{fill:#f05a28;}.cls-6{fill:#ffe9bc;}</style></defs><title>pip-4</title><g id="Layer_2" data-name="Layer 2"><g id="Layer_1-2" data-name="Layer 1"><path class="cls-1" d="M47.47,58.8h1.27v7.83c1.91.48,3.77.93,5.55,1.35V58.8h1.27v9.48C64.84,70.44,71.7,71.7,71.7,71.7s-9.37-51.12-20.93-63h0a.23.23,0,0,1-.07-.07l-.07-.06h0A29.74,29.74,0,0,0,8.58,50.64h0l.06.07a.23.23,0,0,1,.07.07h0C15,56.93,32.52,62.47,47.47,66.3Z"/><circle class="cls-2" cx="26.28" cy="26.3" r="15.57"/><circle class="cls-3" cx="20.73" cy="20.79" r="2.76"/><circle class="cls-3" cx="32.1" cy="24.2" r="2.76"/><path class="cls-1" d="M33.82,59.44H28.27V78.2H25.36a2.78,2.78,0,1,0,0,5.55h8.46Z"/><path class="cls-1" d="M48.74,58.8V78.2H45.83a2.78,2.78,0,1,0,0,5.55h8.46v-25H48.74Z"/><path class="cls-4" d="M35.86,71.72V84H25.4c-2.63,0-4.78-.79-4.78-3.42s2.15-4,4.78-4h.91v-5"/><path class="cls-4" d="M56.56,71.72V84H46.1c-2.64,0-4.78-.79-4.78-3.42s2.14-4,4.78-4H47v-5"/><ellipse class="cls-5" cx="39.55" cy="13.73" rx="1.58" ry="4.21" transform="translate(1.87 31.99) rotate(-45)"/><ellipse class="cls-5" cx="38.46" cy="17.8" rx="4.21" ry="1.58" transform="translate(-3.3 10.56) rotate(-15)"/><ellipse class="cls-5" cx="41.44" cy="20.77" rx="4.21" ry="1.58" transform="translate(10.65 55.42) rotate(-75)"/><ellipse class="cls-5" cx="45.5" cy="19.68" rx="1.58" ry="4.21" transform="translate(-0.59 37.94) rotate(-45)"/><ellipse class="cls-5" cx="46.59" cy="15.62" rx="4.21" ry="1.58" transform="matrix(0.97, -0.26, 0.26, 0.97, -2.45, 12.59)"/><ellipse class="cls-5" cx="43.61" cy="12.64" rx="4.21" ry="1.58" transform="translate(20.11 51.5) rotate(-75)"/><circle class="cls-6" cx="42.53" cy="16.71" r="2.1"/></g></g></svg>