<svg xmlns="http://www.w3.org/2000/svg" viewBox="0 0 71.7 83.75"><defs><style>.cls-1{fill:#f9ae42;}.cls-2{fill:#fff;}.cls-3{fill:#f05a2a;}</style></defs><title>pip-10</title><g id="Layer_2" data-name="Layer 2"><g id="Layer_1-2" data-name="Layer 1"><path class="cls-1" d="M63,8.71a29.75,29.75,0,0,0-41.93-.13h0L21,8.64l-.07.07h0C9.37,20.58,0,71.7,0,71.7s6.86-1.26,16.14-3.42V58.8H17.4V68c1.79-.42,3.65-.87,5.56-1.35V58.8h1.27v7.5C39.17,62.47,56.66,56.93,63,50.77h0l.06-.07.07-.07h0A29.75,29.75,0,0,0,63,8.71Z"/><circle class="cls-2" cx="45.42" cy="26.3" r="15.57"/><circle class="cls-3" cx="50.97" cy="20.79" r="2.76"/><circle class="cls-3" cx="39.6" cy="24.2" r="2.76"/><path class="cls-1" d="M37.87,59.44h5.56V78.2h2.91a2.78,2.78,0,1,1,0,5.55H37.87Z"/><path class="cls-1" d="M17.4,58.8v25h8.47a2.78,2.78,0,1,0,0-5.55H23V58.8H17.4Z"/></g></g></svg>