<svg xmlns="http://www.w3.org/2000/svg" viewBox="0 0 71.7 83.75"><defs><style>.cls-1{fill:#f9ae42;}.cls-2{fill:#fff;}.cls-3{fill:#f05a2a;}</style></defs><title>pip-8</title><g id="Layer_2" data-name="Layer 2"><g id="Layer_1-2" data-name="Layer 1"><path class="cls-1" d="M47.47,58.8h1.27v7.83c1.91.48,3.77.93,5.55,1.35V58.8h1.27v9.48C64.84,70.44,71.7,71.7,71.7,71.7s-9.37-51.12-20.93-63h0a.23.23,0,0,1-.07-.07l-.07-.06h0A29.74,29.74,0,0,0,8.58,50.64h0l.06.07a.23.23,0,0,1,.07.07h0C15,56.93,32.52,62.47,47.47,66.3Z"/><circle class="cls-2" cx="26.28" cy="26.3" r="15.57"/><path class="cls-1" d="M33.82,59.44H28.27V78.2H25.36a2.78,2.78,0,1,0,0,5.55h8.46Z"/><path class="cls-3" d="M15.57,23.55a2.8,2.8,0,1,0,4.19,3,2.42,2.42,0,0,0,0-.25Z"/><circle class="cls-3" cx="26.88" cy="32.83" r="2.8"/><path class="cls-1" d="M21,27a3.51,3.51,0,0,1-2.57-2.1,5.67,5.67,0,0,1,.89-4.8l1.47,1A4,4,0,0,0,20,24.27a1.82,1.82,0,0,0,1.38,1Z"/><path class="cls-1" d="M48.74,58.8V78.2H45.83a2.78,2.78,0,1,0,0,5.55h8.46v-25H48.74Z"/></g></g></svg>