<svg xmlns="http://www.w3.org/2000/svg" viewBox="0 0 71.7 83.75"><defs><style>.cls-1{fill:#6095ce;}.cls-2{fill:#fff;}.cls-3{fill:#f05a2b;}.cls-4{fill:#4b4a4b;}.cls-5,.cls-6{fill:none;stroke-miterlimit:10;}.cls-5{stroke:#4b4a4b;stroke-width:2px;}.cls-6{stroke:#fff;}</style></defs><title>pip-2</title><g id="Layer_2" data-name="Layer 2"><g id="Layer_1-2" data-name="Layer 1"><path class="cls-1" d="M47.47,58.8h1.27v7.83c1.91.48,3.77.93,5.55,1.35V58.8h1.27v9.48C64.84,70.44,71.7,71.7,71.7,71.7s-9.37-51.12-20.93-63h0a.23.23,0,0,1-.07-.07l-.07-.06h0A29.74,29.74,0,0,0,8.58,50.64h0l.06.07a.23.23,0,0,1,.07.07h0C15,56.93,32.52,62.47,47.47,66.3Z"/><circle class="cls-2" cx="26.28" cy="26.3" r="15.57"/><circle class="cls-3" cx="20.73" cy="20.79" r="2.76"/><circle class="cls-3" cx="32.1" cy="24.2" r="2.76"/><path class="cls-1" d="M33.82,59.44H28.27V78.2H25.36a2.78,2.78,0,1,0,0,5.55h8.46Z"/><path class="cls-1" d="M48.74,58.8V78.2H45.83a2.78,2.78,0,1,0,0,5.55h8.46v-25H48.74Z"/><rect class="cls-4" x="25.52" y="56.62" width="11.92" height="18.74"/><rect class="cls-4" x="46.12" y="56.62" width="11.92" height="18.74"/><path class="cls-4" d="M51.2,41.88c8.78,1,11.83,1,11.83,1s2.74.51,5.56-3.54c1.48-2.12-6.69-19.61-12-21.37C61,34.54,51.2,41.88,51.2,41.88Z"/><line class="cls-5" x1="15.38" y1="54.01" x2="15.38" y2="65.99"/><line class="cls-5" x1="22.49" y1="56.62" x2="22.49" y2="68.59"/><path class="cls-4" d="M56.92,18.67a30.13,30.13,0,0,1,.38,4.78A29.56,29.56,0,0,1,52.88,39a24,24,0,0,1-9.21,9.63,34.3,34.3,0,0,1-19.46,6A34.63,34.63,0,0,1,9.41,51.3c13,11.27,62.29,20.3,62.29,20.3S65.47,37.65,56.92,18.67Z"/><path class="cls-6" d="M42.42,54c10.27-2.09,23.35-10.57,26.17-14.62,1.48-2.12-6.69-19.61-12-21.37"/></g></g></svg>