<svg xmlns="http://www.w3.org/2000/svg" viewBox="0 0 71.7 83.75"><defs><style>.cls-1{fill:#6cc;}.cls-2{fill:#fff;}.cls-3{fill:#9f76b2;}</style></defs><title>pip-1</title><g id="Layer_2" data-name="Layer 2"><g id="Layer_1-2" data-name="Layer 1"><path class="cls-1" d="M47.47,58.8h1.27v7.83c1.91.48,3.77.93,5.55,1.35V58.8h1.27v9.48C64.84,70.44,71.7,71.7,71.7,71.7s-9.37-51.12-20.93-63h0a.23.23,0,0,1-.07-.07l-.07-.06h0A29.74,29.74,0,0,0,8.58,50.64h0l.06.07a.23.23,0,0,1,.07.07h0C15,56.93,32.52,62.47,47.47,66.3Z"/><circle class="cls-2" cx="26.28" cy="26.3" r="15.57"/><circle class="cls-3" cx="20.73" cy="20.79" r="2.76"/><circle class="cls-3" cx="32.1" cy="24.2" r="2.76"/><path class="cls-1" d="M33.82,59.44H28.27V78.2H25.36a2.78,2.78,0,1,0,0,5.55h8.46Z"/><path class="cls-1" d="M48.74,58.8V78.2H45.83a2.78,2.78,0,1,0,0,5.55h8.46v-25H48.74Z"/></g></g></svg>